<svg width="155" height="124" viewBox="0 0 155 124" fill="none" xmlns="http://www.w3.org/2000/svg">
<path d="M98.7064 0.49653C102.736 2.04653 104.806 6.73528 103.341 10.9823L66.2339 118.614C64.7614 122.861 60.3206 125.047 56.2984 123.505C52.2684 121.955 50.1991 117.266 51.6639 113.019L88.7709 5.38678C90.2434 1.13978 94.6841 -1.04572 98.7064 0.49653ZM18.7109 63.9845L46.1149 92.923C49.1374 96.116 49.1374 101.293 46.1149 104.486C45.4161 105.242 44.5687 105.844 43.6257 106.257C42.6828 106.669 41.6648 106.882 40.6356 106.882C39.6065 106.882 38.5885 106.669 37.6455 106.257C36.7026 105.844 35.8551 105.242 35.1564 104.486L2.27313 69.7738C0.817773 68.1987 0.00952148 66.1329 0.00952148 63.9884C0.00952148 61.8439 0.817773 59.7781 2.27313 58.203L35.1564 23.483C35.8551 22.7275 36.7026 22.1246 37.6455 21.7123C38.5885 21.3 39.6065 21.0871 40.6356 21.0871C41.6648 21.0871 42.6828 21.3 43.6257 21.7123C44.5687 22.1246 45.4161 22.7275 46.1149 23.483C47.5724 25.0586 48.3821 27.1259 48.3821 29.2723C48.3821 31.4186 47.5724 33.486 46.1149 35.0615L18.7109 63.9845ZM136.294 63.9845L108.89 35.0615C107.435 33.4864 106.626 31.4207 106.626 29.2762C106.626 27.1316 107.435 25.0659 108.89 23.4908C109.589 22.7352 110.436 22.1323 111.379 21.72C112.322 21.3077 113.34 21.0949 114.369 21.0949C115.398 21.0949 116.416 21.3077 117.359 21.72C118.302 22.1323 119.15 22.7352 119.848 23.4908L152.732 58.203C155.754 61.396 155.754 66.573 152.732 69.7738L119.848 104.478C119.15 105.234 118.302 105.837 117.359 106.249C116.416 106.661 115.398 106.874 114.369 106.874C113.34 106.874 112.322 106.661 111.379 106.249C110.436 105.837 109.589 105.234 108.89 104.478C107.437 102.904 106.63 100.839 106.63 98.6968C106.63 96.5541 107.437 94.4899 108.89 92.9153L136.294 63.9845Z" fill="#FF4500"/>
</svg>
